<svg width="42" height="43" viewBox="0 0 42 43" fill="none" xmlns="http://www.w3.org/2000/svg">
<g id="instagram">
<path id="Vector" d="M29.75 3.82031H12.25C7.41751 3.82031 3.5 7.73782 3.5 12.5703V30.0703C3.5 34.9028 7.41751 38.8203 12.25 38.8203H29.75C34.5825 38.8203 38.5 34.9028 38.5 30.0703V12.5703C38.5 7.73782 34.5825 3.82031 29.75 3.82031Z" stroke="black" stroke-width="2" stroke-linecap="round" stroke-linejoin="round"/>
<path id="Vector_2" d="M28 20.2179C28.2159 21.6743 27.9672 23.1617 27.2891 24.4686C26.6109 25.7755 25.538 26.8353 24.2228 27.4973C22.9077 28.1592 21.4173 28.3896 19.9636 28.1557C18.5099 27.9218 17.1671 27.2355 16.1259 26.1944C15.0848 25.1533 14.3985 23.8104 14.1646 22.3567C13.9307 20.9031 14.1611 19.4127 14.823 18.0975C15.485 16.7823 16.5448 15.7094 17.8517 15.0313C19.1586 14.3532 20.646 14.1044 22.1025 14.3204C23.5881 14.5406 24.9635 15.2329 26.0254 16.2949C27.0874 17.3569 27.7797 18.7322 28 20.2179Z" stroke="black" stroke-width="2" stroke-linecap="round" stroke-linejoin="round"/>
<path id="Vector_3" d="M30.625 11.6953H30.6425" stroke="black" stroke-width="2" stroke-linecap="round" stroke-linejoin="round"/>
</g>
</svg>
