<svg width="42" height="43" viewBox="0 0 42 43" fill="none" xmlns="http://www.w3.org/2000/svg">
<g id="twitter">
<path id="Vector" d="M40.25 5.57033C38.5742 6.75242 36.7187 7.65652 34.755 8.24783C33.701 7.03598 32.3003 6.17704 30.7423 5.7872C29.1843 5.39736 27.5441 5.49542 26.0436 6.06813C24.5432 6.64083 23.2548 7.66053 22.3527 8.98934C21.4507 10.3181 20.9785 11.8919 21 13.4978V15.2478C17.9246 15.3276 14.8772 14.6455 12.1293 13.2624C9.3813 11.8792 7.01805 9.83794 5.25 7.32033C5.25 7.32033 -1.75 23.0703 14 30.0703C10.3959 32.5168 6.10252 33.7435 1.75 33.5703C17.5 42.3203 36.75 33.5703 36.75 13.4453C36.7484 12.9579 36.7015 12.4716 36.61 11.9928C38.3961 10.2314 39.6564 8.00758 40.25 5.57033Z" stroke="black" stroke-width="2" stroke-linecap="round" stroke-linejoin="round"/>
</g>
</svg>
